# xmcd CD database file
#
# Track frame offsets:
#	150
#	14407
#	26645
#	39429
#	54482
#	68636
#	83534
#	95019
#	108190
#	122723
#	136820
#	152468
#	166494
#	177843
#	188871
#	203404
#	217003
#	230872
#	244840
#	259063
#	270486
#	284938
#	299765
#	314086
#	328577
#
# Disc length: 4520 seconds
#
# Revision: 0
# Processed by: cddbd v1.5.1PL0 Copyright (c) Steve Scherf et al.
# Submitted via: CDex 1.51
#
DISCID=7411a619
DTITLE=Various Artist - Memphis Jug Band and Cannon's Jug Stompers, Disc C
DYEAR=2005
DGENRE=Blues
TTITLE0=Memphis Jug Band - Everybody's Talking About Sadie Green
TTITLE1=Memphis Jug Band - Oh Ambulance Man
TTITLE2=Memphis Jug Band - Cocaine Habit Blues
TTITLE3=Memphis Jug Band - Jim Strainer Blues
TTITLE4=Memphis Jug Band - Cave Man Blues
TTITLE5=Memphis Jug Band - Fourth Street Mess
TTITLE6=Memphis Jug Band - It Won't Act Right
TTITLE7=Memphis Jug Band - Bumble Bee Blues
TTITLE8=Memphis Jug Band - Meningitis Blues
TTITLE9=Memphis Jug Band - Aunt Caroline Dyer Blues
TTITLE10=Memphis Jug Band - Stonewall Blues
TTITLE11=Memphis Jug Band - Spider's Nest Blues
TTITLE12=Memphis Jug Band - Papa's Got Your Water On
TTITLE13=Memphis Jug Band - Going Back To Memphis
TTITLE14=Memphis Jug Band - He's In The Jailhouse Now
TTITLE15=Memphis Jug Band - Got A Letter From My Darlin'
TTITLE16=Memphis Jug Band - Round And Round
TTITLE17=Memphis Jug Band - You May Leave, But This Will Bring You Back
TTITLE18=Memphis Jug Band - Move That Thing
TTITLE19=Memphis Jug Band - You Got Me Rollin'
TTITLE20=Memphis Jug Band - Son Brimmer's Blues
TTITLE21=Memphis Jug Band - Stingy Woman Blues
TTITLE22=Memphis Jug Band - Newport News Blues
TTITLE23=Memphis Jug Band - Snitchin' Gambler Blues
TTITLE24=Memphis Jug Band - Lindberg Hop
EXTD=YEAR: 2005
EXTT0=
EXTT1=
EXTT2=
EXTT3=
EXTT4=
EXTT5=
EXTT6=
EXTT7=
EXTT8=
EXTT9=
EXTT10=
EXTT11=
EXTT12=
EXTT13=
EXTT14=
EXTT15=
EXTT16=
EXTT17=
EXTT18=
EXTT19=
EXTT20=
EXTT21=
EXTT22=
EXTT23=
EXTT24=
PLAYORDER=
